<svg xmlns="http://www.w3.org/2000/svg" xmlns:xlink="http://www.w3.org/1999/xlink" viewBox="0 0 380 201"><defs><style>.cls-1{fill:none;}.cls-2{clip-path:url(#clip-path);}.cls-3{fill:#231f20;}</style><clipPath id="clip-path" transform="translate(0 0)"><rect class="cls-1" x="24" width="344.48" height="189.46"/></clipPath></defs><g id="Calque_2" data-name="Calque 2"><g id="Background"><image width="917" height="911" transform="translate(0 0) scale(0.41 0.22)" xlink:href="finder/site/17-Amber-Microsite/img/Pattern-in-sixties.jpg"/><g class="cls-2"><path class="cls-3" d="M100.94,60.94h5.16l23,51.65h-7.52l-6.85-15.22H92.85l-6.42,15.22H78.88Zm10.8,29.89-8.29-18.6-7.68,18.6Z" transform="translate(0 0)"/><polygon class="cls-3" points="174.47 61.24 181.34 61.24 181.34 112.59 173.95 112.59 173.95 72.63 158.16 92.48 156.8 92.48 140.83 72.63 140.83 112.59 133.48 112.59 133.48 61.24 140.44 61.24 157.5 82.33 174.47 61.24"/><g class="cls-2"><path class="cls-3" d="M207.54,112.59H190.15V61.24h13.46q6.34,0,9.92,1.71a12.65,12.65,0,0,1,5.44,4.7,12.8,12.8,0,0,1,1.88,6.93q0,7.58-7.84,10.85a15.89,15.89,0,0,1,9,4.63,12.06,12.06,0,0,1,3.32,8.53,12.52,12.52,0,0,1-2,7,14.67,14.67,0,0,1-5.94,5,22,22,0,0,1-9.79,1.94m-3.71-44.81H197.5V83.22h4.89q5.88,0,8.36-2.24a7.46,7.46,0,0,0,2.49-5.81q0-7.4-9.41-7.39m.55,22H197.5v16.29h7.24q6,0,8.18-.94a7.74,7.74,0,0,0,3.46-2.92,7.59,7.59,0,0,0,1.3-4.26,7.36,7.36,0,0,0-1.37-4.31,8.19,8.19,0,0,0-3.92-2.9,24.39,24.39,0,0,0-8-1" transform="translate(0 0)"/><polygon class="cls-3" points="232.16 61.24 261.28 61.24 261.28 67.78 239.51 67.78 239.51 83.44 260.54 83.44 260.54 90.02 239.51 90.02 239.51 105.98 261.98 105.98 261.98 112.52 232.16 112.52 232.16 61.24"/><path class="cls-3" d="M271.53,112.59V61.24H284.4q7.78,0,12.37,3.86a12.94,12.94,0,0,1,4.57,10.44,13.32,13.32,0,0,1-2.24,7.75,16.12,16.12,0,0,1-6,5.33l13,24h-8.74L285.93,90.24h-7.05v22.35Zm9.56-45.1h-2.21V83.7h2.8c3.72,0,6.28-.32,7.66-1a7.15,7.15,0,0,0,3.24-2.88,8.4,8.4,0,0,0,1.15-4.4,7.83,7.83,0,0,0-1.28-4.39,6.86,6.86,0,0,0-3.62-2.77,26.12,26.12,0,0,0-7.74-.81" transform="translate(0 0)"/><path class="cls-3" d="M182.94,122.82v7.77h-2.13v-6a4.66,4.66,0,0,0-.48-2.48,1.86,1.86,0,0,0-1.66-.71,2.43,2.43,0,0,0-1.22.31,5.26,5.26,0,0,0-1.26,1.07v7.77h-2.12V119.88h2.12v1.41a4.59,4.59,0,0,1,3.17-1.61,3.48,3.48,0,0,1,3.15,1.93,4.77,4.77,0,0,1,3.55-2,3.28,3.28,0,0,1,2.57,1.14,5.15,5.15,0,0,1,1,3.48v6.32h-2.11v-6.34a3.34,3.34,0,0,0-.55-2,1.88,1.88,0,0,0-1.57-.71,3.24,3.24,0,0,0-2.46,1.33" transform="translate(0 0)"/><path class="cls-3" d="M198,119.86a5.59,5.59,0,0,1,4.06,1.58,5.29,5.29,0,0,1,1.62,4,5,5,0,0,1-1.64,3.85,5.85,5.85,0,0,1-4.14,1.53,5.59,5.59,0,0,1-4-1.55,5.49,5.49,0,0,1,0-7.8,5.68,5.68,0,0,1,4.11-1.57m-.12,1.91a3.32,3.32,0,0,0-2.5,1,3.52,3.52,0,0,0-1,2.55,3.34,3.34,0,0,0,1,2.51,3.86,3.86,0,0,0,5.13,0,3.41,3.41,0,0,0,1-2.52,3.37,3.37,0,0,0-1-2.53,3.59,3.59,0,0,0-2.61-1" transform="translate(0 0)"/><polygon class="cls-3" points="212.88 119.89 215.18 119.89 210.45 130.78 209.73 130.78 204.89 119.89 207.21 119.89 210.1 126.47 212.88 119.89"/><path class="cls-3" d="M218.17,115.38a1.23,1.23,0,0,1,.89.36,1.19,1.19,0,0,1,.38.88,1.28,1.28,0,0,1-1.27,1.26,1.16,1.16,0,0,1-.87-.38,1.21,1.21,0,0,1,0-1.74,1.2,1.2,0,0,1,.87-.38m-1,4.5h2.12v10.71h-2.12Z" transform="translate(0 0)"/><path class="cls-3" d="M224.73,119.88v1.37a4.23,4.23,0,0,1,3.22-1.57,3.57,3.57,0,0,1,1.86.51,3.32,3.32,0,0,1,1.31,1.42,6.82,6.82,0,0,1,.45,2.86v6.12h-2.12v-6.1a4.11,4.11,0,0,0-.5-2.34,1.9,1.9,0,0,0-1.67-.71,3.07,3.07,0,0,0-2.55,1.51v7.64h-2.17V119.88Z" transform="translate(0 0)"/><path class="cls-3" d="M234.29,123.59a3.29,3.29,0,0,1,1.25-2.71,5.39,5.39,0,0,1,3.42-1h4.41v1.66h-2.16a4.2,4.2,0,0,1,.87,1.16,2.86,2.86,0,0,1,.25,1.2,3.2,3.2,0,0,1-.48,1.65,3.4,3.4,0,0,1-1.23,1.24,7.42,7.42,0,0,1-2.46.68c-.8.12-1.2.4-1.2.83a.7.7,0,0,0,.45.61,6.82,6.82,0,0,0,1.62.5,17,17,0,0,1,2.53.67,3.37,3.37,0,0,1,1,.7,2.63,2.63,0,0,1,.77,1.93,2.8,2.8,0,0,1-1.36,2.44,7.7,7.7,0,0,1-7.28,0,2.81,2.81,0,0,1-1.37-2.45c0-1.45.89-2.39,2.69-2.81-.72-.45-1.07-.91-1.07-1.36a1.23,1.23,0,0,1,.46-.93,2.84,2.84,0,0,1,1.24-.62,3.5,3.5,0,0,1-2.37-3.38m3.48,7.5a3.11,3.11,0,0,0-1.75.46,1.36,1.36,0,0,0-.68,1.16c0,1.11,1,1.66,3,1.66a4.61,4.61,0,0,0,2.18-.42,1.27,1.27,0,0,0,.78-1.17c0-.49-.33-.9-1-1.21a5.73,5.73,0,0,0-2.53-.48m.5-9.37a2,2,0,0,0-1.46.59,1.83,1.83,0,0,0-.61,1.39,1.77,1.77,0,0,0,.6,1.37,2.32,2.32,0,0,0,3,0,1.8,1.8,0,0,0,.6-1.38,1.83,1.83,0,0,0-.6-1.4,2.18,2.18,0,0,0-1.52-.56" transform="translate(0 0)"/><path class="cls-3" d="M261,122.82v7.77h-2.13v-6a4.66,4.66,0,0,0-.48-2.48,1.88,1.88,0,0,0-1.67-.71,2.4,2.4,0,0,0-1.21.31,5.47,5.47,0,0,0-1.27,1.07v7.77h-2.12V119.88h2.12v1.41a4.61,4.61,0,0,1,3.17-1.61,3.48,3.48,0,0,1,3.16,1.93,4.75,4.75,0,0,1,3.54-2,3.26,3.26,0,0,1,2.57,1.14,5.15,5.15,0,0,1,1,3.48v6.32h-2.12v-6.34a3.27,3.27,0,0,0-.55-2,1.87,1.87,0,0,0-1.57-.71,3.24,3.24,0,0,0-2.45,1.33" transform="translate(0 0)"/><path class="cls-3" d="M277.77,130.59v-1.37a4.89,4.89,0,0,1-1.54,1.15,4.06,4.06,0,0,1-1.73.41,3.58,3.58,0,0,1-1.87-.51,3.22,3.22,0,0,1-1.29-1.37,6.89,6.89,0,0,1-.44-2.88v-6.14H273V126a4.11,4.11,0,0,0,.49,2.35,1.93,1.93,0,0,0,1.69.67,3.09,3.09,0,0,0,2.57-1.48v-7.65h2.12v10.71Z" transform="translate(0 0)"/><path class="cls-3" d="M282.66,129.83v-2.29a9.5,9.5,0,0,0,1.83,1,4.25,4.25,0,0,0,1.58.39,2,2,0,0,0,1.14-.32.94.94,0,0,0,.48-.78,1.1,1.1,0,0,0-.31-.78,7.62,7.62,0,0,0-1.34-.89,9.44,9.44,0,0,1-2.68-2,2.81,2.81,0,0,1-.63-1.76,2.47,2.47,0,0,1,1-2,3.73,3.73,0,0,1,2.47-.78,6.84,6.84,0,0,1,3.23.88v2.1a6.4,6.4,0,0,0-3.09-1.15,1.71,1.71,0,0,0-1,.27.79.79,0,0,0-.37.69,1,1,0,0,0,.34.71,5.84,5.84,0,0,0,1.2.82l.76.43c1.79,1,2.68,2.12,2.68,3.35a2.67,2.67,0,0,1-1,2.16,4.06,4.06,0,0,1-2.65.84,6.72,6.72,0,0,1-1.7-.2,12,12,0,0,1-1.87-.75" transform="translate(0 0)"/><path class="cls-3" d="M293.76,115.38a1.21,1.21,0,0,1,.89.36,1.19,1.19,0,0,1,.38.88,1.21,1.21,0,0,1-.38.89,1.19,1.19,0,0,1-.89.37,1.13,1.13,0,0,1-.86-.38,1.19,1.19,0,0,1,0-1.74,1.16,1.16,0,0,1,.86-.38m-1.05,4.5h2.12v10.71h-2.12Z" transform="translate(0 0)"/><path class="cls-3" d="M306.23,128.09v2.1a9,9,0,0,1-3.12.59,5.46,5.46,0,0,1-4-1.49,5.39,5.39,0,0,1-1.49-4,5.72,5.72,0,0,1,1.45-4.08,5,5,0,0,1,3.83-1.54,6.77,6.77,0,0,1,1.49.15,10.08,10.08,0,0,1,1.62.59v2.26a5.65,5.65,0,0,0-3-1,3,3,0,0,0-2.35,1,3.63,3.63,0,0,0-.92,2.57,3.46,3.46,0,0,0,1,2.6,3.69,3.69,0,0,0,2.69,1,6.87,6.87,0,0,0,2.8-.71" transform="translate(0 0)"/><path class="cls-3" d="M332.26,153.16H60.32V36.24H332.26Zm1.82-118.74H58.5V155H334.08Z" transform="translate(0 0)"/></g></g></g></g></svg>