<svg xmlns="http://www.w3.org/2000/svg" viewBox="0 0 40.49 40.49"><g id="Calque_2" data-name="Calque 2"><g id="contacz"><path d="M25.54,14.2a5,5,0,0,0-7.08,0,5,5,0,0,0,0,7.08,5,5,0,0,0,7.08,0,5,5,0,0,0,0-7.08Zm0,0a5,5,0,0,0-7.08,0,5,5,0,0,0,0,7.08,5,5,0,0,0,7.08,0,5,5,0,0,0,0-7.08Zm12.24-3.95a20.44,20.44,0,0,0-7.31-7.49A19,19,0,0,0,20.5,0,20.15,20.15,0,0,0,10.25,2.73a20.6,20.6,0,0,0-7.48,7.38A19.42,19.42,0,0,0,0,20.27,19.64,19.64,0,0,0,2.74,30.41a20.12,20.12,0,0,0,7.4,7.37,19.79,19.79,0,0,0,10.13,2.71,19.91,19.91,0,0,0,10.11-2.68,20.13,20.13,0,0,0,7.37-7.29,19.21,19.21,0,0,0,2.74-10A20.23,20.23,0,0,0,37.78,10.25ZM29.14,21.88a8,8,0,0,1-3,3A8.17,8.17,0,0,1,22,26a7.51,7.51,0,0,1-3.17-.69l-5.58,5.59a2.12,2.12,0,0,1-3-3l5.19-5.18a8,8,0,0,1-1.62-5,8.18,8.18,0,0,1,1.1-4.15A8.09,8.09,0,0,1,22,9.5a8.18,8.18,0,0,1,4.15,1.1,8,8,0,0,1,3,3,8.36,8.36,0,0,1,0,8.29ZM22,12.73a5,5,0,0,0-5,5,5,5,0,0,0,5,5,5,5,0,0,0,5-5,5,5,0,0,0-5-5Z"/></g></g></svg>