<svg xmlns="http://www.w3.org/2000/svg" xmlns:xlink="http://www.w3.org/1999/xlink" viewBox="0 0 380 200.42"><defs><style>.cls-1{fill:none;}.cls-2{isolation:isolate;}.cls-3{clip-path:url(#clip-path);}.cls-4{fill:#231f20;}</style><clipPath id="clip-path"><rect class="cls-1" x="24.26" width="348.17" height="189.46"/></clipPath></defs><g id="Calque_2" data-name="Calque 2"><g id="Calque_1-2" data-name="Calque 1"><g id="Calque_2-2" data-name="Calque 2"><g id="Background"><image class="cls-2" width="917" height="911" transform="scale(0.41 0.22)" xlink:href="Pattern-in-sixties.jpg"/><g class="cls-3"><path class="cls-4" d="M102,60.94h5.22l23.24,51.65h-7.6L116,97.37H93.85l-6.49,15.22H79.73Zm10.92,29.89-8.38-18.6L96.8,90.83Z"/><polygon class="cls-4" points="176.34 61.24 183.28 61.24 183.28 112.59 175.81 112.59 175.81 72.63 159.85 92.48 158.48 92.48 142.34 72.63 142.34 112.59 134.91 112.59 134.91 61.24 141.94 61.24 159.19 82.33 176.34 61.24"/><g class="cls-3"><path class="cls-4" d="M209.76,112.59H192.19V61.24h13.6c4.27,0,7.62.57,10,1.71a12.82,12.82,0,0,1,5.5,4.7,12.66,12.66,0,0,1,1.9,6.93q0,7.58-7.93,10.85a16.14,16.14,0,0,1,9.1,4.63,12,12,0,0,1,3.36,8.53,12.43,12.43,0,0,1-2,7,14.74,14.74,0,0,1-6,5,22.42,22.42,0,0,1-9.89,1.94m-3.75-44.81h-6.46v15.5h4.94q5.94,0,8.45-2.24a7.43,7.43,0,0,0,2.52-5.81q0-7.4-9.52-7.39m.56,22h-6.95v16.29h7.31c4,0,6.8-.31,8.27-.94a7.8,7.8,0,0,0,3.5-2.92A7.46,7.46,0,0,0,220,98a7.28,7.28,0,0,0-1.38-4.31,8.33,8.33,0,0,0-4-2.9,25.14,25.14,0,0,0-8.09-1"/><polygon class="cls-4" points="234.65 61.24 264.08 61.24 264.08 67.78 242.08 67.78 242.08 83.44 263.33 83.44 263.33 90.02 242.08 90.02 242.08 105.98 264.79 105.98 264.79 112.52 234.65 112.52 234.65 61.24"/><path class="cls-4" d="M274.44,112.59V61.24h13q7.86,0,12.5,3.86a12.87,12.87,0,0,1,4.62,10.44,13.29,13.29,0,0,1-2.26,7.75,16.26,16.26,0,0,1-6.07,5.33l13.14,24h-8.83L289,90.24h-7.12v22.35Zm9.66-45.1h-2.23V83.7h2.83c3.76,0,6.35-.32,7.74-1a7.23,7.23,0,0,0,3.28-2.88,8.31,8.31,0,0,0,1.16-4.4,7.71,7.71,0,0,0-1.3-4.39,6.87,6.87,0,0,0-3.65-2.77,26.83,26.83,0,0,0-7.83-.81"/><path class="cls-4" d="M184.9,122.82v7.77h-2.15v-6a4.63,4.63,0,0,0-.49-2.48,1.86,1.86,0,0,0-1.67-.71,2.43,2.43,0,0,0-1.24.31,5.23,5.23,0,0,0-1.27,1.07v7.77h-2.14V119.88h2.14v1.41a4.65,4.65,0,0,1,3.2-1.61,3.54,3.54,0,0,1,3.19,1.93,4.83,4.83,0,0,1,3.58-2,3.3,3.3,0,0,1,2.6,1.14,5.12,5.12,0,0,1,1,3.48v6.32h-2.13v-6.34a3.3,3.3,0,0,0-.56-2,1.89,1.89,0,0,0-1.58-.71,3.3,3.3,0,0,0-2.49,1.33"/><path class="cls-4" d="M200.12,119.86a5.74,5.74,0,0,1,4.11,1.58,5.25,5.25,0,0,1,1.63,4,5,5,0,0,1-1.65,3.85,6,6,0,0,1-4.19,1.53,5.65,5.65,0,0,1-4-1.55,5.45,5.45,0,0,1,0-7.76l0,0a5.78,5.78,0,0,1,4.15-1.57m-.12,1.91a3.41,3.41,0,0,0-2.53,1,3.52,3.52,0,0,0-1,2.55,3.38,3.38,0,0,0,1,2.51,3.94,3.94,0,0,0,5.19,0,3.42,3.42,0,0,0,1-2.52,3.35,3.35,0,0,0-1-2.53,3.68,3.68,0,0,0-2.64-1"/><polygon class="cls-4" points="215.16 119.89 217.49 119.89 212.71 130.78 211.98 130.78 207.09 119.89 209.43 119.89 212.35 126.47 215.16 119.89"/><path class="cls-4" d="M220.51,115.38a1.21,1.21,0,0,1,.9.36,1.19,1.19,0,0,1,.38.88,1.28,1.28,0,0,1-1.28,1.26,1.25,1.25,0,0,1-.91-2.09l0,0a1.23,1.23,0,0,1,.88-.38m-1,4.5h2.14v10.71H219.5Z"/><path class="cls-4" d="M227.14,119.88v1.37a4.31,4.31,0,0,1,3.25-1.57,3.61,3.61,0,0,1,1.88.51,3.31,3.31,0,0,1,1.33,1.42,6.82,6.82,0,0,1,.45,2.86v6.12h-2.14v-6.1a4.07,4.07,0,0,0-.51-2.34,1.93,1.93,0,0,0-1.68-.71,3.09,3.09,0,0,0-2.58,1.51v7.64H225V119.88Z"/><path class="cls-4" d="M236.8,123.59a3.29,3.29,0,0,1,1.26-2.71,5.55,5.55,0,0,1,3.46-1H246v1.66H243.8a4.3,4.3,0,0,1,.87,1.16,2.79,2.79,0,0,1,.26,1.2,3.24,3.24,0,0,1-.49,1.65,3.43,3.43,0,0,1-1.24,1.24,7.38,7.38,0,0,1-2.49.68c-.81.12-1.21.4-1.21.83a.72.72,0,0,0,.45.61,7.39,7.39,0,0,0,1.64.5,17.2,17.2,0,0,1,2.56.67,3.39,3.39,0,0,1,1,.7,2.6,2.6,0,0,1,.78,1.93,2.79,2.79,0,0,1-1.38,2.44,7.84,7.84,0,0,1-7.35,0,2.81,2.81,0,0,1-1.39-2.45c0-1.45.9-2.39,2.72-2.81-.73-.45-1.08-.91-1.08-1.36a1.25,1.25,0,0,1,.46-.93,2.82,2.82,0,0,1,1.26-.62,3.5,3.5,0,0,1-2.4-3.38m3.52,7.5a3.24,3.24,0,0,0-1.77.46,1.37,1.37,0,0,0-.69,1.16c0,1.11,1,1.66,3,1.66a4.67,4.67,0,0,0,2.21-.42,1.29,1.29,0,0,0,.79-1.17c0-.49-.34-.9-1-1.21a5.92,5.92,0,0,0-2.56-.48m.5-9.37a2,2,0,0,0-1.47.59,1.81,1.81,0,0,0-.62,1.39,1.77,1.77,0,0,0,.61,1.37,2.37,2.37,0,0,0,3,0,1.78,1.78,0,0,0,.61-1.38,1.83,1.83,0,0,0-.61-1.4,2.22,2.22,0,0,0-1.54-.56"/><path class="cls-4" d="M263.8,122.82v7.77h-2.16v-6a4.53,4.53,0,0,0-.48-2.48,1.89,1.89,0,0,0-1.69-.71,2.36,2.36,0,0,0-1.22.31,5.48,5.48,0,0,0-1.28,1.07v7.77h-2.15V119.88H257v1.41a4.65,4.65,0,0,1,3.2-1.61,3.5,3.5,0,0,1,3.19,1.93,4.83,4.83,0,0,1,3.58-2,3.3,3.3,0,0,1,2.6,1.14,5.12,5.12,0,0,1,1,3.48v6.32h-2.14v-6.34a3.24,3.24,0,0,0-.56-2,1.9,1.9,0,0,0-1.59-.71,3.28,3.28,0,0,0-2.47,1.33"/><path class="cls-4" d="M280.75,130.59v-1.37a5.06,5.06,0,0,1-1.56,1.15,4.2,4.2,0,0,1-1.75.41,3.6,3.6,0,0,1-1.89-.51,3.3,3.3,0,0,1-1.3-1.37,6.76,6.76,0,0,1-.45-2.88v-6.14h2.13V126a4,4,0,0,0,.49,2.35,2,2,0,0,0,1.71.67,3.14,3.14,0,0,0,2.6-1.48v-7.65h2.14V130.6Z"/><path class="cls-4" d="M285.69,129.83v-2.29a10,10,0,0,0,1.85,1,4.37,4.37,0,0,0,1.6.39,2,2,0,0,0,1.15-.32.91.91,0,0,0,.48-.78,1.09,1.09,0,0,0-.31-.78,8.08,8.08,0,0,0-1.35-.89,9.39,9.39,0,0,1-2.71-2,2.78,2.78,0,0,1-.64-1.76,2.47,2.47,0,0,1,1-2,3.8,3.8,0,0,1,2.5-.78,6.92,6.92,0,0,1,3.26.88v2.1a6.51,6.51,0,0,0-3.12-1.15,1.71,1.71,0,0,0-1,.27.81.81,0,0,0-.38.69,1,1,0,0,0,.35.71,5.86,5.86,0,0,0,1.21.82l.77.43q2.72,1.5,2.71,3.35a2.66,2.66,0,0,1-1,2.16,4.18,4.18,0,0,1-2.68.84,6.63,6.63,0,0,1-1.72-.2,12.82,12.82,0,0,1-1.89-.75"/><path class="cls-4" d="M296.91,115.38a1.21,1.21,0,0,1,.9.36,1.19,1.19,0,0,1,.38.88,1.16,1.16,0,0,1-.38.89,1.22,1.22,0,0,1-.9.37,1.15,1.15,0,0,1-.87-.38,1.18,1.18,0,0,1-.06-1.68l.06-.06a1.19,1.19,0,0,1,.87-.38m-1.06,4.5H298v10.71h-2.14Z"/><path class="cls-4" d="M309.51,128.09v2.1a9.16,9.16,0,0,1-3.15.59,5.51,5.51,0,0,1-4-1.49,5.33,5.33,0,0,1-1.51-4,5.69,5.69,0,0,1,1.47-4.08,5.07,5.07,0,0,1,3.87-1.54,6.88,6.88,0,0,1,1.5.15,10.69,10.69,0,0,1,1.64.59v2.26a5.76,5.76,0,0,0-3-1,3.06,3.06,0,0,0-2.38,1,3.63,3.63,0,0,0-.93,2.57,3.46,3.46,0,0,0,1,2.6,3.8,3.8,0,0,0,2.72,1,7.08,7.08,0,0,0,2.83-.71"/><path class="cls-4" d="M335.82,153.16H61V36.24H335.82Zm1.84-118.74H59.13V155H337.66Z"/></g></g></g></g></g></g></svg>