<svg xmlns="http://www.w3.org/2000/svg" viewBox="0 0 118 32.11"><defs><style>.cls-1{fill:#fefdfc;}.cls-2{fill:#dd9c03;}.cls-3{fill:#dd9c04;}.cls-4{fill:#dd9c02;}.cls-5{fill:#fdfcf9;}.cls-6{fill:#f9eedb;}.cls-7{fill:#faf2e5;}.cls-8{fill:#fbf4e8;}.cls-9{fill:#fbf6eb;}</style></defs><g id="Calque_2" data-name="Calque 2"><g id="contacz"><g id="X3eUqn"><path class="cls-1" d="M0,32.08C0,21.71,0,11.35,0,1,0,.16.17,0,1,0Q59,0,117,0c.82,0,1,.16,1,1q-.06,15,0,30c0,.94-.19,1.13-1.12,1.13Q58.44,32.07,0,32.08ZM26.9,12.41c-.13-2-.13-2-2.12-2-4.07,0-8.14-.05-12.21,0-1.33,0-1.43-.52-1.19-1.55a3.75,3.75,0,0,1,3.34-3c2.1-.32,4.43-.5,5.76,1.49a2.66,2.66,0,0,0,2.83,1.35,12.32,12.32,0,0,1,2.19,0c1.19.13,1.32-.46,1.06-1.38a5.77,5.77,0,0,0-3.63-3.83,17.75,17.75,0,0,0-13.34,0A5.79,5.79,0,0,0,6.05,8c-.19.78-.06,1.89-.55,2.28s-1.56.18-2.38.14S2,10.5,2,11.41C2,14,1.93,14.06,4.54,14c1.15,0,1.33.39,1.32,1.4-.06,3.93,0,7.85-.05,11.78,0,1,.17,1.51,1.32,1.38a15.14,15.14,0,0,1,3,0c1,.1,1.31-.25,1.3-1.28-.06-4,0-8,0-12,0-1,.29-1.24,1.24-1.22,2.37.06,4.76.08,7.13,0,1.11,0,1.48.21,1.45,1.39-.08,4,0,8,0,12.06,0,.79.13,1.16,1,1.1a23.1,23.1,0,0,1,3.43,0c1,.07,1.11-.35,1.1-1.18,0-2.7,0-5.39,0-8.09a4.8,4.8,0,0,1,3.1-4.71,9.29,9.29,0,0,1,4.28-.75c3.84.2,5.66,2.19,5.66,6,0,1.46,0,2.92,0,4.38s-.62,3.31.28,4,2.71.17,4.11.26c.88.05,1.17-.2,1.16-1.12-.06-3.43,0-6.85,0-10.28a6.13,6.13,0,0,0-4.09-6.2A15.06,15.06,0,0,0,26.9,12.41Zm36.72,14.3c.28,1.81.28,1.81,2.08,1.81.87,0,1.75-.06,2.61,0s1.14-.26,1.12-1.14c-.09-3.42-.11-6.85-.14-10.27a6.2,6.2,0,0,0-3.89-5.92,11.59,11.59,0,0,0-3.55-.94,23.13,23.13,0,0,0-9.9.46,6.56,6.56,0,0,0-4.57,4.17c-.48,1.35-.38,1.5,1,1.51,1,0,2.1,0,3.15,0a1.28,1.28,0,0,0,1.5-1,3.36,3.36,0,0,1,2.48-2,11,11,0,0,1,6.46.36,2.12,2.12,0,0,1,1.67,2.09c0,1.08-1,1.36-1.82,1.59a26.58,26.58,0,0,1-5.7.59,22.18,22.18,0,0,0-7,1.1c-2.34.88-3.16,2.35-2.8,4.8A4.71,4.71,0,0,0,49.89,28C54.57,29.38,59.2,29.52,63.62,26.71Zm47.92,2.1c2.77.09,2.72.09,2.91-2.64.34-5,.67-9.91,1.15-14.85.32-3.32.32-2.56-2.82-3.06a1.06,1.06,0,0,0-1.31.7c-.44,1.26-1.48,1.39-2.56,1.32s-2.46-.22-2.87-1.63a1.23,1.23,0,0,0-1.39-1c-.64,0-1.28-.06-1.91-.13-.82-.09-1.17.28-1.23,1.07-.45,6-.88,11.9-1.39,17.84-.12,1.31.43,1.68,1.59,1.74C105,28.37,108.26,28.6,111.54,28.81Zm-29.68.11c3,.07,5.93-.07,8.62-1.57a7,7,0,0,0,3.27-3.56c.28-.69.22-1.11-.72-1.07-1.33.06-2.65,0-4,0-.31,0-.66-.07-.87.25-1.61,2.38-4.08,2.33-6.52,2.22-3.74-.18-6.33-3.18-5.78-6.5a5.1,5.1,0,0,1,3.67-4.35c2.69-.84,5.56-1.19,7.77.89a4.29,4.29,0,0,0,3.46,1.23c.82,0,1.65-.05,2.47,0s.89-.29.63-1a7,7,0,0,0-3.45-3.73A14,14,0,0,0,84,10.31c-3.68-.06-7.32.09-10.46,2.41a8.48,8.48,0,0,0,.86,14.4A14.75,14.75,0,0,0,81.86,28.92Z"/><path class="cls-2" d="M26.9,12.41a15.06,15.06,0,0,1,14.29-1.47,6.13,6.13,0,0,1,4.09,6.2c0,3.43,0,6.85,0,10.28,0,.92-.28,1.17-1.16,1.12-1.4-.09-3.24.44-4.11-.26s-.23-2.64-.28-4,0-2.92,0-4.38c0-3.86-1.82-5.85-5.66-6a9.29,9.29,0,0,0-4.28.75,4.8,4.8,0,0,0-3.1,4.71c0,2.7,0,5.39,0,8.09,0,.83-.13,1.25-1.1,1.18a23.1,23.1,0,0,0-3.43,0c-.9.06-1-.31-1-1.1,0-4,0-8,0-12.06,0-1.18-.34-1.43-1.45-1.39-2.37.08-4.76.06-7.13,0-1,0-1.25.25-1.24,1.22,0,4,0,8,0,12.05,0,1-.26,1.38-1.3,1.28a15.14,15.14,0,0,0-3,0c-1.15.13-1.33-.37-1.32-1.38.06-3.93,0-7.85.05-11.78,0-1-.17-1.43-1.32-1.4C1.93,14.06,2,14,2,11.41c0-.91.35-1.08,1.13-1s1.88.26,2.38-.14.36-1.5.55-2.28a5.79,5.79,0,0,1,3.54-4.4,17.75,17.75,0,0,1,13.34,0,5.77,5.77,0,0,1,3.63,3.83c.26.92.13,1.51-1.06,1.38a12.32,12.32,0,0,0-2.19,0,2.66,2.66,0,0,1-2.83-1.35c-1.33-2-3.66-1.81-5.76-1.49a3.75,3.75,0,0,0-3.34,3c-.24,1-.14,1.58,1.19,1.55,4.07-.08,8.14,0,12.21,0C26.77,10.42,26.77,10.42,26.9,12.41Z"/><path class="cls-3" d="M63.62,26.71c-4.42,2.81-9,2.67-13.73,1.24A4.71,4.71,0,0,1,46.32,24c-.36-2.45.46-3.92,2.8-4.8a22.18,22.18,0,0,1,7-1.1,26.58,26.58,0,0,0,5.7-.59c.83-.23,1.77-.51,1.82-1.59A2.12,2.12,0,0,0,62,13.85a11,11,0,0,0-6.46-.36,3.36,3.36,0,0,0-2.48,2,1.28,1.28,0,0,1-1.5,1c-1.05-.06-2.1,0-3.15,0-1.38,0-1.48-.16-1-1.51A6.56,6.56,0,0,1,52,10.73a23.13,23.13,0,0,1,9.9-.46,11.59,11.59,0,0,1,3.55.94,6.2,6.2,0,0,1,3.89,5.92c0,3.42,0,6.85.14,10.27,0,.88-.2,1.22-1.12,1.14s-1.74,0-2.61,0C63.9,28.52,63.9,28.52,63.62,26.71Zm-.06-6.51a9.43,9.43,0,0,1-3.57.66,23.17,23.17,0,0,0-5.57.57c-1.1.28-2.1.75-2,2.17.06,1.17.82,1.91,2.25,2.17a13.41,13.41,0,0,0,4.77-.08C61.78,25.26,64.3,23.21,63.56,20.2Z"/><path class="cls-4" d="M111.54,28.81c-3.28-.21-6.56-.44-9.83-.62-1.16-.06-1.71-.43-1.59-1.74.51-5.94.94-11.89,1.39-17.84.06-.79.41-1.16,1.23-1.07.63.07,1.27.12,1.91.13a1.23,1.23,0,0,1,1.39,1c.41,1.41,1.68,1.55,2.87,1.63S111,10.22,111.47,9a1.06,1.06,0,0,1,1.31-.7c3.14.5,3.14-.26,2.82,3.06-.48,4.94-.81,9.9-1.15,14.85C114.26,28.9,114.31,28.9,111.54,28.81Zm-4.07-11c0-.72-.59-.62-1-.69-.79-.12-.69.53-.75,1-.11.8.56.67,1,.74C107.52,19,107.28,18.25,107.47,17.8Zm5,.47c.19-.67-.22-.81-.79-.9-.74-.11-.78.32-.86.88-.1.79.45.72.92.82C112.49,19.24,112.51,18.79,112.51,18.27Zm-9.35-.53c-.17.71.22.85.82.9s.75-.28.81-.81c.08-.71-.26-.83-.86-.86S103.07,17.14,103.16,17.74Zm5.21.2c0,.49-.12,1,.6,1,.52,0,1,.08,1-.7,0-.46.09-.94-.62-.93C108.87,17.3,108.29,17.14,108.37,17.94Z"/><path class="cls-2" d="M81.86,28.92a14.75,14.75,0,0,1-7.5-1.8,8.48,8.48,0,0,1-.86-14.4c3.14-2.32,6.78-2.47,10.46-2.41a14,14,0,0,1,6.47,1.49,7,7,0,0,1,3.45,3.73c.26.66.22,1-.63,1s-1.65,0-2.47,0a4.29,4.29,0,0,1-3.46-1.23c-2.21-2.08-5.08-1.73-7.77-.89a5.1,5.1,0,0,0-3.67,4.35c-.55,3.32,2,6.32,5.78,6.5,2.44.11,4.91.16,6.52-2.22.21-.32.56-.25.87-.25,1.33,0,2.65,0,4,0,.94,0,1,.38.72,1.07a7,7,0,0,1-3.27,3.56C87.79,28.85,84.83,29,81.86,28.92Z"/><path class="cls-5" d="M63.56,20.2c.74,3-1.78,5.06-4.16,5.49a13.41,13.41,0,0,1-4.77.08c-1.43-.26-2.19-1-2.25-2.17-.06-1.42.94-1.89,2-2.17A23.17,23.17,0,0,1,60,20.86,9.43,9.43,0,0,0,63.56,20.2Z"/><path class="cls-6" d="M107.47,17.8c-.19.45,0,1.17-.78,1-.43-.07-1.1.06-1-.74.06-.45,0-1.1.75-1C106.88,17.18,107.51,17.08,107.47,17.8Z"/><path class="cls-7" d="M112.51,18.27c0,.52,0,1-.73.8-.47-.1-1,0-.92-.82.08-.56.12-1,.86-.88C112.29,17.46,112.7,17.6,112.51,18.27Z"/><path class="cls-8" d="M103.16,17.74c-.09-.6.16-.8.77-.77s.94.15.86.86c-.06.53-.16.86-.81.81S103,18.45,103.16,17.74Z"/><path class="cls-9" d="M108.37,17.94c-.08-.8.5-.64,1-.65.71,0,.62.47.62.93,0,.78-.5.71-1,.7C108.25,18.91,108.34,18.43,108.37,17.94Z"/></g></g></g></svg>