<svg xmlns="http://www.w3.org/2000/svg" viewBox="0 0 118 46"><defs><style>.cls-1{fill:#fff;}</style></defs><g id="Calque_2" data-name="Calque 2"><g id="contacz"><g id="gf072m"><path class="cls-1" d="M0,0H118V46H0ZM3.16,23.77a5.3,5.3,0,0,0,5.43,5,5,5,0,1,0,0-10A5.13,5.13,0,0,0,3.16,23.77Zm32.27.53c0,1,.06,1.87,0,2.77a1.47,1.47,0,0,1-.69.93,6.69,6.69,0,0,1-7.45-.79,4.9,4.9,0,0,1,0-6.87,6.11,6.11,0,0,1,7.24-.69,9.75,9.75,0,0,0,1,.45l.32-.4a8.57,8.57,0,0,0-1.19-.89c-2.82-1.46-6.57-.88-8.44,1.28A5.66,5.66,0,0,0,27,28.17c2.2,1.71,6.7,1.79,8.88.13a1.17,1.17,0,0,0,.5-.74c.05-1.34,0-2.69,0-3.9H32l0,.4Zm40.43,5.08.56-.22a4.25,4.25,0,0,0-.14-.51c-1.5-3.25-3-6.5-4.52-9.73-.13-.28-.5-.47-.77-.7-.3.26-.75.47-.9.79q-2.3,4.84-4.52,9.73c-.06.14,0,.34.08.73.37-.29.7-.42.73-.59.51-2.81,2.73-3.12,5.41-2.79a2.81,2.81,0,0,0,.71,0,1.83,1.83,0,0,1,2.29,1.35A11.55,11.55,0,0,0,75.86,29.38Zm-25.4,0,.45-.18c0-.13.08-.29,0-.4-1.51-3.3-3-6.6-4.57-9.89-.13-.28-.63-.7-.79-.65a1.66,1.66,0,0,0-.91.75c-1.37,2.86-2.69,5.73-4,8.6-.23.52-.43,1-.65,1.56.59,0,1-.12,1-.29.48-3,2.92-3,5.57-2.8a3.37,3.37,0,0,0,.71,0,1.68,1.68,0,0,1,2.06,1.2A14.3,14.3,0,0,0,50.46,29.39Zm38.84,0,.41-.32-4.2-5.46,3.91-5.13L89,18.15c-1.85,1.12-2.36,3.26-4.13,4.55-.72-.94-1.37-1.78-2-2.63-1.3-1.72-1.3-1.72-2.36-1.61l3.9,5.1-4.22,5.53.59.38,4.14-5C86.66,26,87.31,28.14,89.3,29.35Zm5.92-11.09-.45,0a2.48,2.48,0,0,0-.34.84c0,2.28-.07,4.57.07,6.84s1.92,3.57,4.57,3.54,4.32-1.39,4.42-3.68,0-4.46,0-6.69a2.61,2.61,0,0,0-.31-.84,2,2,0,0,0-.52,1.46c0,1.93.06,3.85,0,5.78,0,2.1-1.43,3.28-3.7,3.28s-3.54-1.16-3.62-3.2,0-3.95,0-5.93C95.33,19.18,95.26,18.72,95.22,18.26ZM115.56,20l.32-.46A4.22,4.22,0,0,0,111.7,18,3,3,0,0,0,109,20.35c-.31,1.58.83,2.44,2.22,3.13a19.33,19.33,0,0,1,2.94,1.35,2.51,2.51,0,0,1,1.08,2,2.94,2.94,0,0,1-1.78,1.66,3.24,3.24,0,0,1-3.49-.84c-.29-.28-.63-.51-.94-.76l-.55.47a12.14,12.14,0,0,0,2.12,1.68c1.79.9,4.42.27,5.31-1.14s.26-3-1.79-4.06c-.81-.41-1.71-.69-2.52-1.09-1.69-.83-2.16-1.87-1.41-3s2.66-1.36,4.08-.6C114.71,19.44,115.13,19.71,115.56,20ZM62.12,29.2v-.54H55.9V17.92c-.95,1.13-1.17,9.32-.58,11.28ZM10.19,18c.73-1.73-.26-2.76-1.8-3.58C6.92,15.3,5.77,16.27,6.67,18ZM13,19l0,.63c.7.84,1.25,2.15,2.84,1.23.52-.3.49-1.32.72-2ZM.84,18.4l-.64.52c.46.7.72,1.74,1.42,2,1.55.66,1.78-.78,2.73-1.7Zm13.83,7.73-.76,0a6.45,6.45,0,0,0-.61,2.65c.07.34,1.62.46,2.49.68l.45-.48Zm-11.57.1-.88-.08L.76,29.07l.5.46c.81-.24,2.22-.36,2.32-.74C3.79,28,3.3,27.09,3.1,26.23Zm4.53,3.35-.31.51,2.46,1.48.26-.35L9,29.51Z"/><path d="M3.16,23.77a5.13,5.13,0,0,1,5.39-5,5,5,0,1,1,0,10A5.3,5.3,0,0,1,3.16,23.77Z"/><path d="M35.43,24.3,32,24.06l0-.4h4.46c0,1.21,0,2.56,0,3.9a1.17,1.17,0,0,1-.5.74C33.73,30,29.23,29.88,27,28.17a5.66,5.66,0,0,1-.76-8.08c1.87-2.16,5.62-2.74,8.44-1.28a8.57,8.57,0,0,1,1.19.89l-.32.4a9.75,9.75,0,0,1-1-.45,6.11,6.11,0,0,0-7.24.69,4.9,4.9,0,0,0,0,6.87,6.69,6.69,0,0,0,7.45.79,1.47,1.47,0,0,0,.69-.93C35.49,26.17,35.43,25.27,35.43,24.3Z"/><path d="M75.86,29.38a11.55,11.55,0,0,1-1.07-1.94,1.83,1.83,0,0,0-2.29-1.35,2.81,2.81,0,0,1-.71,0c-2.68-.33-4.9,0-5.41,2.79,0,.17-.36.3-.73.59-.05-.39-.14-.59-.08-.73q2.24-4.87,4.52-9.73c.15-.32.6-.53.9-.79.27.23.64.42.77.7,1.53,3.23,3,6.48,4.52,9.73a4.25,4.25,0,0,1,.14.51ZM70.9,19l-2.75,6.16H73.7Z"/><path d="M50.46,29.39a14.3,14.3,0,0,1-1.14-2.1,1.68,1.68,0,0,0-2.06-1.2,3.37,3.37,0,0,1-.71,0c-2.65-.24-5.09-.17-5.57,2.8,0,.17-.39.3-1,.29.22-.52.42-1,.65-1.56,1.33-2.87,2.65-5.74,4-8.6a1.66,1.66,0,0,1,.91-.75c.16-.05.66.37.79.65,1.55,3.29,3.06,6.59,4.57,9.89.05.11,0,.27,0,.4ZM48.4,25.23l-2.85-6.18-2.81,6.18Z"/><path d="M89.3,29.35c-2-1.21-2.64-3.38-4.42-4.93l-4.14,5-.59-.38,4.22-5.53-3.9-5.1c1.06-.11,1.06-.11,2.36,1.61.64.85,1.29,1.69,2,2.63,1.77-1.29,2.28-3.43,4.13-4.55l.45.29-3.91,5.13L89.71,29Z"/><path d="M95.22,18.26c0,.46.11.92.12,1.37,0,2,0,4,0,5.93s1.45,3.19,3.62,3.2,3.65-1.18,3.7-3.28c0-1.93,0-3.85,0-5.78a2,2,0,0,1,.52-1.46,2.61,2.61,0,0,1,.31.84c0,2.23.06,4.46,0,6.69s-1.81,3.65-4.42,3.68-4.43-1.26-4.57-3.54-.08-4.56-.07-6.84a2.48,2.48,0,0,1,.34-.84Z"/><path d="M115.56,20c-.43-.26-.85-.53-1.3-.76-1.42-.76-3.36-.47-4.08.6s-.28,2.13,1.41,3c.81.4,1.71.68,2.52,1.09,2,1,2.72,2.6,1.79,4.06s-3.52,2-5.31,1.14a12.14,12.14,0,0,1-2.12-1.68l.55-.47c.31.25.65.48.94.76a3.24,3.24,0,0,0,3.49.84,2.94,2.94,0,0,0,1.78-1.66,2.51,2.51,0,0,0-1.08-2,19.33,19.33,0,0,0-2.94-1.35c-1.39-.69-2.53-1.55-2.22-3.13A3,3,0,0,1,111.7,18a4.22,4.22,0,0,1,4.18,1.48Z"/><path d="M62.12,29.2h-6.8c-.59-2-.37-10.15.58-11.28V28.66h6.23Z"/><path d="M10.19,18H6.67c-.9-1.77.25-2.74,1.72-3.58C9.93,15.28,10.92,16.31,10.19,18Z"/><path d="M13,19l3.52-.14c-.23.68-.2,1.7-.72,2-1.59.92-2.14-.39-2.84-1.23Z"/><path d="M.84,18.4l3.51.85c-.95.92-1.18,2.36-2.73,1.7-.7-.29-1-1.33-1.42-2Z"/><path d="M14.67,26.13,16.24,29l-.45.48c-.87-.22-2.42-.34-2.49-.68a6.45,6.45,0,0,1,.61-2.65Z"/><path d="M3.1,26.23c.2.86.69,1.78.48,2.56-.1.38-1.51.5-2.32.74l-.5-.46,1.46-2.92Z"/><path d="M7.63,29.58,9,29.51l1,1.71-.26.35L7.32,30.09Z"/><path class="cls-1" d="M70.9,19l2.8,6.16H68.15Z"/><path class="cls-1" d="M48.4,25.23H42.74l2.81-6.18Z"/></g></g></g></svg>