<svg xmlns="http://www.w3.org/2000/svg" viewBox="0 0 118.7 45"><defs><style>.cls-1{fill:#fff;}</style></defs><g id="Calque_2" data-name="Calque 2"><g id="contacz"><g id="_2Z7EUe.tif" data-name="2Z7EUe.tif"><path class="cls-1" d="M118.7,45H0V0H118.7Zm-2.61-9.82H2.52v7.2H116.09ZM16.08,5.1V33.58C24,33.91,31.36,26.67,31.16,19,30.92,10.27,22.83,4.75,16.08,5.1ZM2.65,33.58H14.51V17H2.65Zm29.76.35c2.58,0,5,0,7.44,0a6.35,6.35,0,0,0,6.53-6.25,6.72,6.72,0,0,0-5.8-7.22c-2.67-.26-5.38-.05-8.17-.05ZM2.65,3l-.09.67a19.58,19.58,0,0,0,2,.19H114.13a7,7,0,0,0,1.3,0c.27,0,.5-.31.75-.48L116.05,3Zm11.79,7.49a5.76,5.76,0,0,0-6-5.73,5.82,5.82,0,0,0-5.77,6,5.94,5.94,0,0,0,6,5.77A5.87,5.87,0,0,0,14.44,10.44ZM82.88,23.37c0,2.66-.1,5.19,0,7.7a3.48,3.48,0,0,0,4.17,3.1,13.94,13.94,0,0,0,2.75-1.11l5.1,1.23a7.15,7.15,0,0,0,0-2.33c-1.06-2.2-.51-4.51-.65-6.78,0-.57,0-1.14,0-1.8H89.84c0,1.88,0,3.7,0,5.52,0,.93-.28,1.66-1.31,1.69-1.19.05-1.18-.88-1.19-1.71,0-1.81,0-3.63,0-5.51Zm23.75,10.47c0-2.62.07-5.05,0-7.47a3.21,3.21,0,0,0-3.24-3,19.27,19.27,0,0,0-3.47.74c-.51-.86-1.57-1-4.27-.53V33.82h4.11a37.09,37.09,0,0,1,.08-5.08A2.54,2.54,0,0,1,101.41,27c1.14-.2,1,1,1,1.75,0,1.7,0,3.4,0,5.12Zm-57.39-15c0-2.32,0-4.53,0-6.74A3.67,3.67,0,0,0,44,8.63a14.7,14.7,0,0,0-1.43.72c-.56-1.09-2-1.31-4.31-.69V18.82h4.14v-5c0-1.06.45-1.86,1.54-1.89,1.26,0,1.18,1,1.2,1.88,0,1.66,0,3.31,0,5.05ZM76.35,34.11c3.41,0,6.15-2.38,6.18-5.37s-2.78-5.58-6.18-5.6-6.15,2.51-6.2,5.44C70.09,31.67,72.82,34.11,76.35,34.11ZM69.66,14.24C69.79,11,68.52,9,66.07,8.37c-3.26-.8-6.19.89-6.73,3.9-.69,3.84,1.22,6.57,4.89,6.87A12.6,12.6,0,0,0,67.3,19c2.41-.39,2.61-.74,2.18-3.22-5.62.51-5.7.49-5.86-1.57Zm37.36,12c1.5-.39,1.39.62,1.38,1.61a27.37,27.37,0,0,0,.06,3.39c.27,2.19,2.49,3.38,5.31,2.92,2.47-.4,2.83-1,2.35-3.81-3.34.83-3.66.45-3-4.08l2.75-.13v-2.6L113,23.34l-.18-3.23C110.29,20.52,106.84,24.15,107,26.21ZM51.12,11.28c0,1.69,0,3.25,0,4.8a3,3,0,0,0,2.28,2.83,5,5,0,0,0,4.94-.58c.62-.52.44-2,.66-3.13-3.5.8-4,.57-3.36-4L58.55,11V8.49l-3-.22-.16-3.11c-2.62.33-6.58,4.48-5.7,5.86Zm18.7,15.88c0-1,.05-1.89,0-2.78a1.18,1.18,0,0,0-.57-.82c-3-1.53-7.64.66-8.33,3.92-.78,3.63,1.31,6.44,5.37,6.61s3.82-.07,3.39-3.61c-1.55.33-3.2.76-4.24-.88a2.12,2.12,0,0,1,0-1.93C66.58,26.21,68.16,26.78,69.82,27.16ZM32.46,5.4V18.8H37V5.4ZM51.84,30.34c.65,1.3-.72,3,1.18,3.36a14.37,14.37,0,0,0,5.43,0A2.68,2.68,0,0,0,59.59,29a14.84,14.84,0,0,0-2-1.38c-.44-.32-.84-.69-1.26-1l.16-.45a8.65,8.65,0,0,1,1.61,0,13.7,13.7,0,0,1,1.79.63c.31-2.71-.27-3.47-2.85-3.54a7.42,7.42,0,0,0-3,.44A3,3,0,0,0,53.37,29c.5.4,1.14.63,1.65,1a6.13,6.13,0,0,1,.85,1,3.87,3.87,0,0,1-1.43.32A18,18,0,0,1,51.84,30.34ZM70.52,8.44V18.8h4c.12-1.75-.08-3.46.43-4.92.67-1.94,2.49-1.79,4.22-1.17.06-1,0-1.77.16-2.55.22-1.29-.48-2-1.56-1.88a15.36,15.36,0,0,0-3.34,1.14l-.19-1ZM51.45,33.83c0-3.29,0-6.39,0-9.5,0-.3-.41-.84-.65-.86-1.22-.09-2.44,0-3.6,0v10.4Zm0-12.33c-1-.69-1.6-1.4-2.17-1.39S47.83,21,47.9,21.4a2.21,2.21,0,0,0,1.39,1.48C49.72,23,50.37,22.22,51.41,21.5Z"/><path d="M116.09,35.18v7.2H2.52v-7.2Z"/><path d="M16.08,5.1C22.83,4.75,30.92,10.27,31.16,19c.2,7.68-7.15,14.92-15.08,14.59Z"/><path d="M2.65,33.58V17H14.51V33.58Z"/><path d="M32.41,33.93V20.39c2.79,0,5.5-.21,8.17.05a6.72,6.72,0,0,1,5.8,7.22,6.35,6.35,0,0,1-6.53,6.25C37.42,34,35,33.93,32.41,33.93Zm4.77-7a21,21,0,0,1,0,2.1c-.14,1.29.49,1.62,1.64,1.43a3,3,0,0,0,2.58-2.72,3.38,3.38,0,0,0-1.79-3.81c-1.65-.72-2.41-.24-2.42,1.54Z"/><path d="M2.65,3h113.4l.13.36c-.25.17-.48.43-.75.48a7,7,0,0,1-1.3,0H4.56a19.58,19.58,0,0,1-2-.19Z"/><path d="M14.44,10.44a5.87,5.87,0,0,1-5.76,6,5.94,5.94,0,0,1-6-5.77,5.82,5.82,0,0,1,5.77-6A5.76,5.76,0,0,1,14.44,10.44Z"/><path d="M82.88,23.37h4.46c0,1.88,0,3.7,0,5.51,0,.83,0,1.76,1.19,1.71,1,0,1.32-.76,1.31-1.69,0-1.82,0-3.64,0-5.52h4.41c0,.66,0,1.23,0,1.8.14,2.27-.41,4.58.65,6.78a7.15,7.15,0,0,1,0,2.33l-5.1-1.23a13.94,13.94,0,0,1-2.75,1.11,3.48,3.48,0,0,1-4.17-3.1C82.78,28.56,82.88,26,82.88,23.37Z"/><path d="M106.63,33.84h-4.18c0-1.72,0-3.42,0-5.12,0-.79.11-1.95-1-1.75a2.54,2.54,0,0,0-1.59,1.77,37.09,37.09,0,0,0-.08,5.08H95.63V23.55c2.7-.52,3.76-.33,4.27.53a19.27,19.27,0,0,1,3.47-.74,3.21,3.21,0,0,1,3.24,3C106.7,28.79,106.63,31.22,106.63,33.84Z"/><path d="M49.24,18.87H45.09c0-1.74,0-3.39,0-5.05,0-.85.06-1.92-1.2-1.88-1.09,0-1.55.83-1.54,1.89v5H38.21V8.66c2.32-.62,3.75-.4,4.31.69A14.7,14.7,0,0,1,44,8.63a3.67,3.67,0,0,1,5.28,3.5C49.25,14.34,49.24,16.55,49.24,18.87Z"/><path d="M76.35,34.11c-3.53,0-6.26-2.44-6.2-5.53,0-2.93,2.92-5.45,6.2-5.44s6.21,2.56,6.18,5.6S79.76,34.12,76.35,34.11Zm1.84-5.48c-.14-1-.58-1.94-1.87-1.91a1.73,1.73,0,0,0-1.73,1.94c0,1.13.48,2.05,1.75,2.08S78.07,29.85,78.19,28.63Z"/><path d="M69.66,14.24h-6c.16,2.06.24,2.08,5.86,1.57.43,2.48.23,2.83-2.18,3.22a12.6,12.6,0,0,1-3.07.11c-3.67-.3-5.58-3-4.89-6.87.54-3,3.47-4.7,6.73-3.9C68.52,9,69.79,11,69.66,14.24Zm-4.29-1.77.41-.4c-.41-.39-.84-1.1-1.25-1.09s-.86.7-1.29,1.1l.27.39Z"/><path d="M107,26.21c-.18-2.06,3.27-5.69,5.75-6.1l.18,3.23,2.93.17v2.6l-2.75.13c-.67,4.53-.35,4.91,3,4.08.48,2.83.12,3.41-2.35,3.81-2.82.46-5-.73-5.31-2.92a27.37,27.37,0,0,1-.06-3.39C108.41,26.83,108.52,25.82,107,26.21Z"/><path d="M51.12,11.28,49.71,11c-.88-1.38,3.08-5.53,5.7-5.86l.16,3.11,3,.22V11l-2.89.19c-.6,4.62-.14,4.85,3.36,4-.22,1.17,0,2.61-.66,3.13a5,5,0,0,1-4.94.58,3,3,0,0,1-2.28-2.83C51.09,14.53,51.12,13,51.12,11.28Z"/><path d="M69.82,27.16c-1.66-.38-3.24-.95-4.37.51a2.12,2.12,0,0,0,0,1.93c1,1.64,2.69,1.21,4.24.88.43,3.54.57,3.77-3.39,3.61s-6.15-3-5.37-6.61c.69-3.26,5.33-5.45,8.33-3.92a1.18,1.18,0,0,1,.57.82C69.87,25.27,69.82,26.18,69.82,27.16Z"/><path d="M32.46,5.4H37V18.8H32.46Z"/><path d="M51.84,30.34a18,18,0,0,0,2.6,1A3.87,3.87,0,0,0,55.87,31,6.13,6.13,0,0,0,55,30c-.51-.39-1.15-.62-1.65-1a3,3,0,0,1,.68-5.23,7.42,7.42,0,0,1,3-.44c2.58.07,3.16.83,2.85,3.54a13.7,13.7,0,0,0-1.79-.63,8.65,8.65,0,0,0-1.61,0l-.16.45c.42.35.82.72,1.26,1a14.84,14.84,0,0,1,2,1.38,2.68,2.68,0,0,1-1.14,4.63,14.37,14.37,0,0,1-5.43,0C51.12,33.35,52.49,31.64,51.84,30.34Z"/><path d="M70.52,8.44h3.74l.19,1a15.36,15.36,0,0,1,3.34-1.14c1.08-.11,1.78.59,1.56,1.88-.13.78-.1,1.6-.16,2.55-1.73-.62-3.55-.77-4.22,1.17-.51,1.46-.31,3.17-.43,4.92h-4Z"/><path d="M51.45,33.83H47.17V23.43c1.16,0,2.38-.05,3.6,0,.24,0,.64.56.65.86C51.47,27.44,51.45,30.54,51.45,33.83Z"/><path d="M51.41,21.5c-1,.72-1.69,1.49-2.12,1.38A2.21,2.21,0,0,1,47.9,21.4c-.07-.37.85-1.28,1.34-1.29S50.39,20.81,51.41,21.5Z"/><path class="cls-1" d="M37.18,26.94V25.48c0-1.78.77-2.26,2.42-1.54a3.38,3.38,0,0,1,1.79,3.81,3,3,0,0,1-2.58,2.72c-1.15.19-1.78-.14-1.64-1.43A21,21,0,0,0,37.18,26.94Z"/><path class="cls-1" d="M78.19,28.63c-.12,1.22-.57,2.13-1.85,2.11s-1.76-.95-1.75-2.08a1.73,1.73,0,0,1,1.73-1.94C77.61,26.69,78.05,27.6,78.19,28.63Z"/><path class="cls-1" d="M65.37,12.47H63.51l-.27-.39c.43-.4.85-1.08,1.29-1.1s.84.7,1.25,1.09Z"/></g></g></g></svg>