<svg xmlns="http://www.w3.org/2000/svg" viewBox="0 0 40.49 40.49"><g id="Calque_2" data-name="Calque 2"><g id="contacz"><path d="M30.5,2.76a20.58,20.58,0,0,1,7.28,7.46,20.08,20.08,0,0,1,2.71,10.23,19.21,19.21,0,0,1-2.74,10,20.34,20.34,0,0,1-7.37,7.31,19.64,19.64,0,0,1-10.11,2.71,19.6,19.6,0,0,1-10.13-2.74,20.35,20.35,0,0,1-7.4-7.4A19.63,19.63,0,0,1,0,20.22,19.51,19.51,0,0,1,2.76,10.05a20.43,20.43,0,0,1,7.46-7.34A20.18,20.18,0,0,1,20.5,0,19,19,0,0,1,30.5,2.76ZM10.05,10.05a2.71,2.71,0,0,0-.84,2V28.45A2.85,2.85,0,0,0,12,31.27H28.45a2.7,2.7,0,0,0,2-.83,2.74,2.74,0,0,0,.83-2V12a2.74,2.74,0,0,0-.83-2,2.7,2.7,0,0,0-2-.83H12A2.7,2.7,0,0,0,10.05,10.05ZM28.54,28.48a.85.85,0,0,1-.61.26H12.56a.94.94,0,0,1-.67-.26.83.83,0,0,1-.26-.6V18.55h2.08a4.89,4.89,0,0,0-.29,1.9,6.28,6.28,0,0,0,2,4.69,6.68,6.68,0,0,0,4.86,1.93,6.71,6.71,0,0,0,4.87-1.93,6.32,6.32,0,0,0,2-4.69,5.09,5.09,0,0,0-.29-1.9h2v9.33A.83.83,0,0,1,28.54,28.48ZM23.41,17.16a4.12,4.12,0,0,1,1.3,3.06,4,4,0,0,1-1.3,3,4.6,4.6,0,0,1-6.28,0,4,4,0,0,1-1.29-3,4.15,4.15,0,0,1,1.29-3.06,4.54,4.54,0,0,1,6.28,0Zm5.1-5.24a1,1,0,0,1,.29.69V15a.94.94,0,0,1-.29.69.91.91,0,0,1-.69.29H25.28a.91.91,0,0,1-.69-.29A.94.94,0,0,1,24.3,15V12.61a1,1,0,0,1,.29-.69.94.94,0,0,1,.69-.29h2.54A.94.94,0,0,1,28.51,11.92Z"/></g></g></svg>