<svg xmlns="http://www.w3.org/2000/svg" viewBox="0 0 85.64 32.3"><defs><style>.cls-1{fill:#181716;}</style></defs><g id="Calque_2" data-name="Calque 2"><g id="Background"><path class="cls-1" d="M9,8.75A8.2,8.2,0,0,1,17.42,17a15.58,15.58,0,0,1-.19,2.66H4.34c0,2.62,1.36,4.73,4.76,4.73,2.42,0,3.32-1.1,3.87-2.39h4.3c-.63,3.13-3.48,5.94-8.17,5.94C3,27.89,0,23.28,0,18.32,0,12.85,3.24,8.75,9,8.75Zm4.29,7.69c0-2.54-1.79-4.14-4.41-4.14s-4.49,1.45-4.49,4.14Z"/><path class="cls-1" d="M23.24,0a2.84,2.84,0,1,1-2.83,2.86A2.84,2.84,0,0,1,23.24,0ZM21.13,27.42V9.22h4.25v18.2Z"/><path class="cls-1" d="M30,27.42V.08h4.26V17.26l6.68-8h5.31l-7.57,9.1,7.57,9.1H41l-6.68-8v8Z"/><path class="cls-1" d="M55.63,8.75a9.37,9.37,0,0,1,9.64,9.57,9.61,9.61,0,0,1-19.22,0A9.34,9.34,0,0,1,55.63,8.75Zm0,15.35A5.47,5.47,0,0,0,61,18.32a5.47,5.47,0,0,0-5.39-5.78c-3.25,0-5.32,2.65-5.32,5.78S52.38,24.1,55.63,24.1Z"/><path class="cls-1" d="M68.39,27.42V9.22h4.26v2.54c1.13-2,3.24-3,5.94-3s4.41.94,5.47,2.46c.9,1.37,1.17,2.89,1.17,5.39V27.42H81V18C81,14.88,80,12.5,77,12.5S72.65,14.88,72.65,18v9.41Z"/><polygon class="cls-1" points="37.42 30.35 0.63 30.35 0.63 32.3 38.33 32.3 37.42 30.35"/><polygon class="cls-1" points="40.09 30.35 41.01 32.3 85.64 32.3 85.64 30.35 40.09 30.35"/></g></g></svg>