<svg xmlns="http://www.w3.org/2000/svg" viewBox="0 0 40.43 40.43"><g id="Calque_2" data-name="Calque 2"><g id="contacz"><path d="M30.44,2.76a20.58,20.58,0,0,1,7.28,7.46,20.08,20.08,0,0,1,2.71,10.23,19.3,19.3,0,0,1-2.73,10,20.2,20.2,0,0,1-7.38,7.28,19.8,19.8,0,0,1-10.1,2.68A20.18,20.18,0,0,1,2.71,30.35,19.79,19.79,0,0,1,0,20.22,19.59,19.59,0,0,1,2.74,10.05,20.44,20.44,0,0,1,20.45,0,19,19,0,0,1,30.44,2.76ZM7.83,11.35a1,1,0,0,0-.34.74V28.34a1,1,0,0,0,.34.75.94.94,0,0,0,.69.28H31.91a.94.94,0,0,0,.69-.28,1.05,1.05,0,0,0,.29-.75V12.09a1.34,1.34,0,0,0-.29-.74.91.91,0,0,0-.69-.29H8.52A.91.91,0,0,0,7.83,11.35Zm1.62,3.16,6.73,5.88L9.45,26.44Zm1.67-1.09H29.26l-9.1,8Zm.23,14,6.33-5.76,1.84,1.72,1.27.06,2-1.78L29,27.42Zm19.64-1-6.74-6.05L31,14.51Z"/></g></g></svg>