<svg xmlns="http://www.w3.org/2000/svg" viewBox="0 0 41.18 40.15"><g id="Calque_2" data-name="Calque 2"><g id="contacz"><path d="M30.93,2.76a20.69,20.69,0,0,1,7.49,7.49,20.09,20.09,0,0,1,2.76,10.31A20.23,20.23,0,0,1,39.39,29a20.72,20.72,0,0,1-5,6.85,19.87,19.87,0,0,1-7.28,4.24,1.64,1.64,0,0,1-.41,0,1,1,0,0,1-.77-.28,1.06,1.06,0,0,1-.26-.75l0-5.65a6,6,0,0,0-.4-2.3,4.07,4.07,0,0,0-1-1.5A12.53,12.53,0,0,0,31.16,27c1.73-1.44,2.59-3.94,2.59-7.52A7.84,7.84,0,0,0,31.62,14a6.51,6.51,0,0,0,.4-2.37,8.39,8.39,0,0,0-.57-3.11,4.79,4.79,0,0,0-2.28.32,14.68,14.68,0,0,0-3.43,1.82,18.2,18.2,0,0,0-5.12-.7,18.78,18.78,0,0,0-5.18.7,13.88,13.88,0,0,0-3.37-1.82,4.79,4.79,0,0,0-2.28-.32,8.39,8.39,0,0,0-.58,3.11A6.51,6.51,0,0,0,9.62,14a7.84,7.84,0,0,0-2.13,5.52c0,3.58.85,6.08,2.56,7.52a12.41,12.41,0,0,0,6.83,2.62,4,4,0,0,0-1.33,2.77,5.77,5.77,0,0,1-2.36.51A4,4,0,0,1,9.56,30.7a5.52,5.52,0,0,0-1.32-1.41,3.31,3.31,0,0,0-1.85-.67c-.61,0-.92.12-.92.35s.27.52.81.86A3.78,3.78,0,0,1,7.46,30.9a7.55,7.55,0,0,1,1.06,2,4.23,4.23,0,0,0,1.67,1.87,5.67,5.67,0,0,0,3.11.78,10.86,10.86,0,0,0,2.19-.23v3.8a1.07,1.07,0,0,1-.34.83,1.1,1.1,0,0,1-1,.15,19.91,19.91,0,0,1-7.29-4.24,21.09,21.09,0,0,1-5-6.85A19.94,19.94,0,0,1,0,20.56,20.09,20.09,0,0,1,2.76,10.25a20.62,20.62,0,0,1,7.52-7.49A20.22,20.22,0,0,1,20.62,0,20.09,20.09,0,0,1,30.93,2.76ZM7.66,29.26c-.19-.12-.33-.1-.4.06a.26.26,0,0,0,.23.28c.15.08.27.06.34-.05S7.81,29.34,7.66,29.26Zm1.07,1a.28.28,0,0,0-.15-.21.29.29,0,0,0-.4-.11c-.12.11-.1.27.06.46a.31.31,0,0,0,.23.12.24.24,0,0,0,.17-.06A.18.18,0,0,0,8.73,30.27Zm.83,1.15a.38.38,0,0,0-.11-.26A.35.35,0,0,0,9,31a.34.34,0,0,0,0,.51c.2.2.35.25.47.18A.4.4,0,0,0,9.56,31.42Zm1.09,1.12a.35.35,0,0,0-.17-.23.7.7,0,0,0-.29-.17.24.24,0,0,0-.28.06c-.12.11-.08.28.11.51s.46.23.58.12A.27.27,0,0,0,10.65,32.54Zm1.44.87c0-.16-.11-.27-.34-.35s-.44,0-.52.17a.44.44,0,0,0,.35.41c.26.07.44,0,.51-.18Zm1.59,0a.59.59,0,0,0-.32-.09.51.51,0,0,0-.32.12.31.31,0,0,0-.14.23.26.26,0,0,0,.14.2.72.72,0,0,0,.32.08.48.48,0,0,0,.32-.11.32.32,0,0,0,.14-.23A.23.23,0,0,0,13.68,33.38ZM15,33.12a.62.62,0,0,0-.37.11c-.1.08-.12.16-.09.23a.23.23,0,0,0,.15.2.34.34,0,0,0,.31,0,.36.36,0,0,0,.29-.11.35.35,0,0,0,.12-.23A.41.41,0,0,0,15,33.12Z"/></g></g></svg>